<svg width="14" height="14" viewBox="0 0 14 14" fill="none" xmlns="http://www.w3.org/2000/svg">
<path d="M0 2.45614C0 1.09965 1.09965 0 2.45614 0H11.5439C12.9003 0 14 1.09965 14 2.45614V11.5439C14 12.9003 12.9003 14 11.5439 14H2.45614C1.09965 14 0 12.9003 0 11.5439V2.45614Z" fill="#9A9AA1"/>
<g clip-path="url(#clip0_2804_480)">
<rect width="7.85965" height="7.85965" transform="translate(3.19299 2.94739)" fill="#9A9AA1"/>
<path d="M10.4708 2.94739H3.77326C3.45242 2.94739 3.19299 3.20068 3.19299 3.51384V10.2391C3.19299 10.5522 3.45242 10.807 3.77326 10.807H10.4708C10.7917 10.807 11.0526 10.5522 11.0526 10.2406V3.51384C11.0526 3.20068 10.7917 2.94739 10.4708 2.94739ZM5.52479 9.64497H4.35812V5.89322H5.52479V9.64497ZM4.94146 5.38204C4.5669 5.38204 4.26448 5.07962 4.26448 4.7066C4.26448 4.33357 4.5669 4.03116 4.94146 4.03116C5.31448 4.03116 5.6169 4.33357 5.6169 4.7066C5.6169 5.07809 5.31448 5.38204 4.94146 5.38204ZM9.89058 9.64497H8.72545V7.82129C8.72545 7.38686 8.71777 6.82655 8.11909 6.82655C7.51273 6.82655 7.42062 7.3009 7.42062 7.79059V9.64497H6.25703V5.89322H7.37457V6.40594H7.38992C7.54497 6.1112 7.92567 5.79958 8.49212 5.79958C9.6726 5.79958 9.89058 6.57634 9.89058 7.58642V9.64497V9.64497Z" fill="white"/>
</g>
<defs>
<clipPath id="clip0_2804_480">
<rect width="7.85965" height="7.85965" fill="white" transform="translate(3.19299 2.94739)"/>
</clipPath>
</defs>
</svg>
