<svg width="14" height="14" viewBox="0 0 14 14" fill="none" xmlns="http://www.w3.org/2000/svg">
<path d="M0 2.45614C0 1.09965 1.09965 0 2.45614 0H11.5439C12.9003 0 14 1.09965 14 2.45614V11.5439C14 12.9003 12.9003 14 11.5439 14H2.45614C1.09965 14 0 12.9003 0 11.5439V2.45614Z" fill="#9A9AA1"/>
<g clip-path="url(#clip0_2804_476)">
<rect width="9.33333" height="9.33333" transform="translate(2.45612 2.21057)" fill="#9A9AA1"/>
<path d="M7.12278 3.05094C8.36966 3.05094 8.51731 3.0564 9.00768 3.07828C9.46341 3.09833 9.7095 3.17489 9.87356 3.2387C10.0905 3.32255 10.2473 3.42463 10.4095 3.58687C10.5736 3.75094 10.6738 3.90588 10.7577 4.12281C10.8215 4.28687 10.898 4.53479 10.9181 4.9887C10.94 5.48088 10.9454 5.62854 10.9454 6.87359C10.9454 8.12047 10.94 8.26812 10.9181 8.75849C10.898 9.21422 10.8215 9.46031 10.7577 9.62437C10.6738 9.8413 10.5717 9.99807 10.4095 10.1603C10.2454 10.3244 10.0905 10.4246 9.87356 10.5085C9.7095 10.5723 9.46158 10.6489 9.00768 10.6689C8.51549 10.6908 8.36783 10.6962 7.12278 10.6962C5.87591 10.6962 5.72825 10.6908 5.23789 10.6689C4.78216 10.6489 4.53606 10.5723 4.372 10.5085C4.15507 10.4246 3.9983 10.3226 3.83606 10.1603C3.672 9.99625 3.57174 9.8413 3.48789 9.62437C3.42408 9.46031 3.34752 9.21239 3.32747 8.75849C3.30559 8.2663 3.30013 8.11864 3.30013 6.87359C3.30013 5.62672 3.30559 5.47906 3.32747 4.9887C3.34752 4.53297 3.42408 4.28687 3.48789 4.12281C3.57174 3.90588 3.67382 3.74911 3.83606 3.58687C4.00013 3.42281 4.15507 3.32255 4.372 3.2387C4.53606 3.17489 4.78398 3.09833 5.23789 3.07828C5.72825 3.0564 5.87591 3.05094 7.12278 3.05094ZM7.12278 2.21057C5.85586 2.21057 5.69726 2.21604 5.19961 2.23792C4.70377 2.25979 4.36289 2.34 4.06757 2.45484C3.7595 2.57515 3.49882 2.73375 3.23997 2.99443C2.97929 3.25328 2.8207 3.51396 2.70039 3.82021C2.58554 4.11734 2.50533 4.4564 2.48346 4.95224C2.46158 5.45172 2.45612 5.61031 2.45612 6.87724C2.45612 8.14416 2.46158 8.30276 2.48346 8.80041C2.50533 9.29625 2.58554 9.63713 2.70039 9.93245C2.8207 10.2405 2.97929 10.5012 3.23997 10.76C3.49882 11.0189 3.7595 11.1793 4.06575 11.2978C4.36289 11.4127 4.70195 11.4929 5.19778 11.5147C5.69544 11.5366 5.85403 11.5421 7.12096 11.5421C8.38789 11.5421 8.54648 11.5366 9.04414 11.5147C9.53997 11.4929 9.88086 11.4127 10.1762 11.2978C10.4824 11.1793 10.7431 11.0189 11.0019 10.76C11.2608 10.5012 11.4212 10.2405 11.5397 9.93427C11.6546 9.63713 11.7348 9.29807 11.7566 8.80224C11.7785 8.30458 11.784 8.14599 11.784 6.87906C11.784 5.61213 11.7785 5.45354 11.7566 4.95588C11.7348 4.46005 11.6546 4.11916 11.5397 3.82385C11.4249 3.51396 11.2663 3.25328 11.0056 2.99443C10.7467 2.73557 10.4861 2.57515 10.1798 2.45667C9.88268 2.34182 9.54362 2.26161 9.04778 2.23974C8.5483 2.21604 8.38971 2.21057 7.12278 2.21057Z" fill="white"/>
<path d="M7.12278 4.4801C5.79934 4.4801 4.72565 5.5538 4.72565 6.87724C4.72565 8.20068 5.79934 9.27437 7.12278 9.27437C8.44622 9.27437 9.51992 8.20068 9.51992 6.87724C9.51992 5.5538 8.44622 4.4801 7.12278 4.4801ZM7.12278 8.43219C6.26419 8.43219 5.56783 7.73583 5.56783 6.87724C5.56783 6.01864 6.26419 5.32229 7.12278 5.32229C7.98138 5.32229 8.67773 6.01864 8.67773 6.87724C8.67773 7.73583 7.98138 8.43219 7.12278 8.43219Z" fill="white"/>
<path d="M10.1743 4.38532C10.1743 4.69522 9.92276 4.94496 9.61469 4.94496C9.30479 4.94496 9.05505 4.69339 9.05505 4.38532C9.05505 4.07542 9.30662 3.82568 9.61469 3.82568C9.92276 3.82568 10.1743 4.07725 10.1743 4.38532Z" fill="white"/>
</g>
<defs>
<clipPath id="clip0_2804_476">
<rect width="9.33333" height="9.33333" fill="white" transform="translate(2.45612 2.21057)"/>
</clipPath>
</defs>
</svg>
