<?xml version="1.0" encoding="UTF-8"?>
<svg id="Layer_2" data-name="Layer 2" xmlns="http://www.w3.org/2000/svg" viewBox="0 0 471.16 173.2">
  <defs>
    <style>
      .cls-1 {
        fill: #fff;
      }
    </style>
  </defs>
  <g id="Layer_2-2" data-name="Layer 2">
    <g>
      <g>
        <path class="cls-1" d="M5.38,135.96c1.08.71,2.25,1.45,3.48,2.19.12-.05.22-.25.28-.8.1.37.17.74.22,1.1,5.63,3.32,12.43,6.65,17.54,8.28,3.29,1.05,2.7,1.33,4.78,2.39,2.34,1.2,6.35,2.28,8.37,3.59.64.41,1.14,1.29,1.79,1.79.73,3.13-2.35,5.1-3.59,7.18-.81,1.36-.81,3.46-1.2,4.78-.14.48-1.08.74-1.2,1.2-.39,1.63.07,4.91,1.79,5.38,2.62.72,4.26-1.14,6.58-1.2.14-1.81.9-3.35,1.96-4.78.02-.83.1-1.7.27-2.63.35.29.65.7.93,1.19,1.8-1.96,4.04-3.75,5.81-5.74h2.39l3.59,2.39h2.39c2.92-1.74,7.4-4.11,4.78-8.37-.62-1.01-2.21-1.94-2.99-2.99-.51-1.73,1.72-2.39,2.39-3.59.32-.57-.22-1.57,0-1.79.21-.21,1.15.27,1.79,0,5.41-2.27,9.52-10.41,15.55-11.96l4.78-5.98c2.4-.7,4.18,1.66,5.98,2.39,4.17,1.68,9.12,3.34,13.15,4.78,13.67,4.9,28.27,10.13,41.85,15.55,2.89,1.15,10.12,7.87,11.96,8.37,2.03.56,5.88-.31,8.37,0,.44.05.74,1.11,1.2,1.2,2.63.48,4.96.28,6.58-1.79,3.75-4.81-2.68-5.88-5.38-8.97-2.63-.77-5.1-2.34-7.17-3.59-1.95-1.16-1.94-3.06,0-3.59,2.81-.76,4.26,1.12,4.78,1.2,2.9.42,6.91-.57,9.57,0,.41.09,3.18,2.3,3.59,2.39,4.79,1.04,9.62-.28,15.55,1.2,6.41,1.59,12.73.8,19.13,2.39,4.04,1.01,9.06,1.66,13.15,2.39,6.91,1.23,13.8,1.43,20.85,2.18.03-.73.09-1.43.15-1.89h.47c.13.39.24,1.15.29,1.99.32.04.64.07.96.11.44.05.75,1.13,1.2,1.2,3.88.58,7.67-.2,10.17-2.99v-5.38c-1.96.64-2.37-1.01-2.99-1.2-.96-.29-2.5.24-3.59,0-14.43-3.16-30.06-3.43-44.25-7.18l-3.05-.36c-.16,1.07-.34,2.08-.6,2.89.02-.84.02-1.88.04-2.95l-6.56-.77c-.18-4.51,2.99-3.03,5.38-3.59.48-.11.96-.25,1.43-.38.22-1.74.63-2.86,1.42-2.35-.17.61-.31,1.33-.43,2.08,6.37-1.88,12.72-5.19,19.1-7.72,5.35-2.13,11.03-3.79,16.38-6.31-.79-.68-1.5-2.96-.53-4.65.63-1.1,1.62.02,1.72,1.75.07,1.14,0,1.91-.15,2.41.98-.49,1.96-1,2.92-1.57.32-.19.94.17,1.2,0,2.68-1.78,6.27-5.74,5.38-8.97-1.09-3.97-7.22-2.62-10.16-2.99-11.55-1.45-24.32-1.67-36.37-.76-.03.29-.07.6-.13.92-.58.21-.92-.24-1.21-.82-.74.06-1.47.13-2.2.2,0,1.76-.58,3.31-1.59,1.93.06-.75.2-1.29.35-1.8-1.03.11-2.08.2-3.1.33-1.35.17-3.71,1.94-7.17,1.2-.41-.09-3.18-2.3-3.59-2.39-6.95-1.5-6.81,1.99-10.76,4.78-.23.16-2.56.3-2.99,1.79-.34,1.17.6,2.6-1.2,3.59l2.39,4.78v2.39c-2.25,2-2.51,8.18-5.38,8.97-1.27.35-3.33-.26-4.78,0-.46.08-.76,1.14-1.2,1.2-3.12.38-15.31.59-17.94,0-.42-.1-.68-.96-1.2-1.2-.37-.17-.94.15-1.2,0-1.67-.99-6.11-5.96-7.77-7.77-8.41-9.18-17.14-20.13-25.11-29.9-.61-.75-3.85-4.09-4.19-4.19-1.17-.34-2.6.6-3.59-1.2l-5.38,2.99c-.59,2.06,1.91,4.08,1.2,7.18-.1.43-.96.68-1.2,1.2-.17.37.15.94,0,1.2-1.57,2.64-6.94,5.8-8.37,8.37-.31.57.22,1.57,0,1.79-.22.22-1.23-.32-1.79,0-2.36,1.32-2.73,4.81-7.18,3.59-.61-.17-1.57-1.95-2.39-2.39-1.17-.63-6.78-3.49-7.17-3.59-3.35-.78-5.08.86-5.6,3.25.17,0,.37.04.6.2.23,2.12.15,3.63-.11,4.69.99,1.15,4.44,4.55,5.11,5.02.25.17.89-.19,1.2,0,1.88,1.18,2.04,2.7,1.79,4.78-1.83-.45-1.94.38-2.99,1.2-5.55,4.31-11.36,9.93-16.74,14.35-3.41,2.8-4,5.99-9.57,4.78-1.01-.22-4.59-2.98-5.98-3.59-8.35-3.62-17.02-6.42-25.02-11.5.26.69.5,1.45.78,2.11-.15,1.76-.75.99-1.25.44-.13,1.51.29,1.84,0,2.62-.29.35-.57.73-.94.87-.69-1.52-.4-4.83-.02-6.97-.35-.24-.7-.47-1.05-.72-.47-.33-3.7-.63-2.99-2.99,1.06-.8,1.96-2.34,2.99-2.99,4.72-3,9.32-5.63,14.35-8.37,6.47-3.53,12.65-7.74,19.13-10.76,1.76-.82,6.02-2.82,7.17-3.59,4.18-2.78,6.07-6.25,1.2-9.57-4.24-.76-7.31,1.47-10.76,3.59-3.97,2.43-7.36,4.3-11.96,5.98-5.1,1.87-10.44,6.5-15.55,9.57-.58.35-3.02.85-3.59,1.2-3.61,2.22-7.25,4.93-10.76,7.18-1.68,1.07-1.38,2.11-1.79,2.99-.23.49-1.01.73-1.2,1.2-.38.95.64,2.64-1.2,3.59l1.2,5.98c1.46,1.12,2.75,3.23,4.19,4.19ZM191.93,116.83c.75-.21,1.68.23,2.39,0,3.75-1.2,4.71-.73,8.37-1.2,2.52-.32,8.29-2.13,10.76-2.39,4.35-.47,6.61.73,9.57,1.2,1.65.26,3.65-.17,5.38,0l-2.99,3.59c-10.67,4.09-21.75,7.4-32.29,9.57-1.22.25-2.85-.16-4.19,0-.15-3.22-.63-9.72,2.99-10.76ZM189.36,114.21c-.67-.31-.8-2.14-1.41-2.62.64-1.32,1.46.55,1.41,2.62ZM187.49,110.71c.1.29-.07-.18,0,0h0ZM119.56,104.16c.25-.12.27.41.47.44-.11,1.87-.25,3.66-1.09,3.49-.05-2.03.48-2.43.62-3.93ZM101.65,115.03c1.05-1.52,2.32-5.39,4.19-6.58.31-.19.95.17,1.2,0,1.63-1.16,2.05-3.18,4.78-2.39.42.12,2.82,2.41,5.58,5.18.17-.56.32-1.16.45-1.84.25-.12.27.41.47.44-.01.82-.06,1.54-.13,2.2,3.66,3.7,7.7,7.93,8.58,8.98.19.23-.2.95,0,1.2,2.57,3.11,6.6,5.27,5.98,10.16-1.71-.2-3.78.3-5.38,0-4.15-.77-13.2-6.28-17.94-8.37-1.54-.68-5.08-1.06-7.17-2.39-4.9-3.11-2.46-3.87-.6-6.58ZM42.72,156.13c.66.78,1.1,2.17,1.09,4.81-.75,2.12-1.61-1.34-1.09-4.81Z"/>
        <path class="cls-1" d="M71.44,91.72c9.49,1.41,138.63.03,147.99,1.2,5.78.72,11.32-1.82,17.94-1.2,12.66,1.19,27.64,1.48,39.46,0,1.75-.22,5.52-.28,7.18,0,.46.08,1.07,1.86,2.99,1.2,0,0,.84-.22,2.39,0,4.47-.3,9.34.41,13.75,0,8.06-.75,17.61,1.34,25.11,0,2.22-.4,6.42-.64,11.08-.73.04-.69.14-1.29.4-1.52.18.35.28.89.36,1.51,7.45-.12,15.86.14,19.25.74,7.26,1.29,16.91-1.3,22.72,0,1.29.29,6.48.38,10.81.31-.81-3.55-.5-10.64.58-5.18.75-.49.76,1.08,1.25,1.31-.09,1.96,0,3.03.17,3.82,1.81-.06,3.28-.14,3.94-.26.44-.08.71-1.06,1.2-1.2.77-.22,1.74.26,2.39,0,.47-.19.7-.97,1.2-1.2.37-.17.93.15,1.2,0,2.01-1.19,3.55-3.57,2.99-5.98-1.92.66-2.53-1.12-2.99-1.2-7.53-1.29-17-1.6-25.11-1.2-20.45,1.03-43.33,2.26-64.58,1.2-7.43-.37-17.22-.37-23.92-1.2-16.69-2.06-35.37,2.21-51.42,1.2-6.96-.44-13.98-.37-20.86-.46.26,1.56-.05,3.69-.19,5.59-.16-1.52-.53-3.66-.45-5.6-4.89-.07-130.2-.23-134.86-.73-3.16-.34-11.46-.51-14.35,0-.44.08-.7,1.04-1.2,1.2-1,.32-3.62-.26-4.19,1.79-2.16,7.83,3.4,5.93,7.77,6.58ZM349.27,85.85c.63-.17.9.68.78,2.62-.56-.03-.83-.88-.78-2.62ZM317.72,88.04c.52-1.06-.38,1.46,0,0h0ZM315.69,91.53c.28.32.02.79,0,1.31-.28-.32-.02-.79,0-1.31Z"/>
        <path class="cls-1" d="M287.34,96.07c-.77,0-1.48.43-1.82,1.13-.8,1.69-2.59,2.57-3,3.5-4.68,10.68-4.95,26.95-5.98,39.46-.04.43-1.17.77-1.2,1.2-.21,3.07-.61,13.32,0,15.55.12.44,1.09,1.18,1.92,1.89.3.26.67.4,1.05.45.01-.15.03-.31.04-.46.09.13.18.26.24.48.39,0,.77-.1,1.11-.32,1.67-1.11,4.01-2.67,4.88-3.84,0-.08,0-.15.01-.24h.14c.07-.12.13-.24.16-.35.35-1.27-.26-3.33,0-4.78.39-2.15,2.21-7.62,2.39-9.57.65-7.13-.23-17.34,1.2-23.92.09-.41,2.3-3.18,2.39-3.59.43-2-.27-4.94,0-7.18.05-.44,1.13-.75,1.2-1.2.69-4.64-.75-4.56-3.19-7.48-.39-.46-.96-.74-1.57-.74ZM279.31,156.17c-.28-1.98.37-3.86.47-6.11.66,1.22.05,5.38-.47,6.11ZM279.93,144.81c-.67-2.36-.49-7.08-.63-10.92.83,1.59,1.21,8.18.63,10.92Z"/>
        <path class="cls-1" d="M406.59,150.91l-2.99,2.99-5.98,1.2c-3.72,2.53-3.12,5.39-2.99,9.57,1.95-.62,2.69,1.63,4.19,1.2,7.56-2.17,16.61-1.25,25.33-.96.16-.64.46-.9.55-1.74.27.43.32,1.08.29,1.77,5.54.15,10.93,0,15.69-1.45,2.33-.71,3.25,1.14,3.59,1.2,5.53.99,15.36-.04,20.33-1.2,2.68-.62,4.41.52,6.58-2.99-.5-.89-1.04-4.03-1.2-4.19-.14-.14-2.37.35-2.99-1.2h-1.52c-.05.27-.43,1.24-.16.2.05-.1.08-.16.11-.2h-14.89c-.25,1.89-.91,2.65-1.15,4.57-.14-1.24-.12-3.13.11-4.57h-1.25c.07.05.13.11.2.2.27,2.59-1.25,3.55-1.56,1.75.18-1.07.47-1.71.8-1.94h-19.65c-.04,1.51-.25,2.65-.82,3.25-.16-.96-.14-2.12-.06-3.25h-7.39c.21,1.01.22,2.31.11,3.25-.33-.3-.1-2.16-.15-3.25h-.56l-2.99-1.2c.2-1.71-.3-3.78,0-5.38.1-.54,2.14-3.98,2.39-4.78,2.89-9.17,4.15-17.62,7.17-26.31,2.75-7.9,4.4-17.6,7.18-25.11.27-.72,1.76-2.75,2.39-3.59l-4.19-5.38c-1.36-.39-5.75,2.8-6.58,4.19-1.33,2.23-1.5,5.67-2.39,8.37-3.79,11.41-7.82,22.75-10.76,34.68-1.31,5.31-2.1,11.66-3.59,16.74-.17.57-1.99,1.58-1.2,3.59ZM462.49,157.91c.08,1.82-.4,2.1-.94,2.18-.17-2.04.47-3.28.94-2.18ZM459.83,160.54c-.21-.14-.13-1.1-.16-1.75.55-.39.27,1.42.16,1.75ZM426.88,160.1c.59-.35.2,2.06.31,3.06-.71.21-.43-2.04-.31-3.06ZM424.23,105.07h.31v.87h-.31v-.87ZM424.54,113.81c-.64.41-.54-2.36-.31-3.06.59.64.31,1.16.31,3.06ZM423.92,105.94c.47.29-.15.93,0,1.75-.39-.07-.05-1.48,0-1.75ZM421.73,115.12c.31,1.61.01,2.94,0,4.8-1.47.65-1.69-7.23,0-4.8ZM415.64,147c.56-.41.22,1.72.31,2.62-.56.41-.22-1.72-.31-2.62Z"/>
        <path class="cls-1" d="M361.74,157.49c1.54.67,4.99,3.37,5.98,3.59,3.81.85,5.49-.79,8.37-2.39.6-.34,2.21-.18,2.99-1.79-.5-.89-1.04-4.03-1.2-4.19-.17-.17-.8.1-1.37.08,0,.53-.02,1.07-.08,1.64-.41.12-.67-.16-.62-1.31-.67.41-1.03,2.67-1.88,1.31-.09-1.49.05-2.36.41-2.58-2.18-1.21-4.57-2.92-6.63-3.92-6.82-3.31-15.2-6.61-21.52-10.76-1.42-.93-2.9-2.73-4.78-3.59l1.2-2.39c8.92-.92,20.12,1.26,28.7,0,.47-.07,1.81-1.89,4.78-1.2,1.04.24,2.03.41,2.98.52,0-.03.01-.06.02-.1h.94c0,.07,0,.13,0,.2.28.02.55.04.83.06.03-.4.06-.8.11-1.13.48.38.67,1.28,1.09,0,.15.23.24.65.28,1.19,2.94.07,5.52-.12,8.1.46,1.37.31,8.18.3,9.57,0,.21-.05,3.29-1.94,3.59-2.39.73-1.12.55-2.2,1.79-2.99.26-2.49-1.84-2.46-2.99-2.99-.52-.24-.77-1.1-1.2-1.2-1.26-.28-11.35-1.34-11.96-1.2-8.08,1.89-16.56.74-24.56.05,0,.25.01.49.04.76-.8.17-1.28-.22-1.52-.87-5.83-.38-12.3.17-18.21.06-1.46-.03-4.46.89-4.19-1.2,2.15.12,3.87.12,5.98-.6,2.03-.69,3.75-2.87,4.19-2.99,4.86-1.33,9.5-2.26,14.35-3.59.27-.07,4.48-2.2,4.78-2.39,6.2-3.94,1.78-9.57-4.78-8.37-.45.08-.72,1.08-1.2,1.2-8.1,2.04-15.68,5.12-23.92,7.18-1.89.47-3.9,1.02-5.94,1.63,0,.12,0,.23,0,.34-.06-.05-.11-.16-.16-.29-4.01,1.2-8.16,2.65-11.84,4.3-1.53.69-2.86,1.37-4.11,2.01-.1.35-.37,1.02-.13.09,0-.01.01-.02.02-.03-2.54,1.31-4.77,2.46-7.64,3.22.2.65.36,2.17.44.3.46.37-.09,1.41,0,2.19-.28,0-.45-2.45-.78-.87-.66-.44.55-1.18,0-1.31.02-.09.03-.16.05-.22-.69.17-1.41.32-2.19.44.17.74.55.86.58,1.97-.55.29-.67-.6-.63-1.96-.37.06-.75.11-1.14.16-2.49.29-6.36-.55-8.37,0-2.38.66-3.35,3.97-2.88,6.77.38-.24.78-.2,1.16.27.03,1-.03,1.75-.14,2.35.47.65,1.09,1.14,1.86,1.37,1.62.48,4.35.72,5.98,1.2.38.11,3.33,3.01,4.78,3.59,7.24,2.89,16.26,5.72,23.92,8.37,9.15,3.17,19.49,7.97,28.7,11.96ZM353.8,144.38c.05,1.01-.02,1.68-.16,2.18-.11-.99-.66-.77-.94-1.31.02-1.25.65-.8,1.09-.87ZM343.33,139.14c.52-.45.24,1.36.31,2.18-.39-.1-.65-1.29-.31-2.18ZM371.6,125.16c-2.72,1.18.18-9.69,0,0h0ZM357.39,110.31c.49.08.42,1.73.47,3.06-.83.33-.91-2.02-.47-3.06ZM334.12,115.99c.03-1.31.65.42,0,0h0ZM333.96,134.77h.78c.36,3.36-1.14,3.36-.78,0ZM305.7,127.35c.58,1.32-.48,1.47,0,0h0ZM306.17,131.71c-.25-.43-.36-1.16-.16-1.75.26.87.63,1,.16,1.75ZM307.1,126.91c.48-1.62.53,1.33,0,0h0ZM307.1,129.53c.06-.57.28-.69.31-1.31.34.66-.11,1.07.16,2.18.02.09.03.16.04.22-.09-.37-.31-1.23-.51-1.09ZM308.2,129.09c0,.07,0,.12-.01.18,0-.09,0-.18.01-.26,0,.03,0,.05,0,.08ZM308.82,122.1c.48-1.19-.43,1.33,0,0h0ZM308.98,129.53c.03-1.31.65.42,0,0h0ZM309.29,121.23h.31v.87h-.31v-.87ZM310.07,122.98c-.34,1.33-1-.5,0,0h0ZM309.92,128.66c.03-1.31.65.42,0,0h0ZM315.69,122.1c.39-1.7.23,1.45,0,0h0ZM316.32,128.22c.03-1.31.65.42,0,0h0ZM317.26,120.79c.39-1.7.23,1.45,0,0h0ZM317.57,128.22c.26-1.54.49,1.43,0,0h0ZM317.88,132.15c.52-1.06-.38,1.47,0,0h0ZM318.5,133.2c0-.06,0-.11,0-.18,0-.03,0-.05,0-.08,0,.08,0,.17-.01.26ZM318.19,121.23c.4-1.27-.34-2.32-.62-1.31-.24-1.06.37-1.14.78-1.31.12.81.26,1.6.31,2.62h-.47ZM318.5,119.05c.03-.51-.03-.78-.16-.87.02-.84.52.51.94,0,.16,1.47-.49.68-.78.87ZM320.38,136.52c.49,1.45-.69,1.87,0,0h0ZM320.69,131.71c-.12.8-.17-.26-.15-.87-.46-.62.36-.34.15.87ZM322.1,135.21c0,.1,0,.18-.01.26,0,.12-.01.23-.02.33,0-.08.01-.2.02-.33.03-.53.06-1.11.01-.26ZM323.5,137.39c-.48.32-.57-.45-.94-.44.19-3.7-.45-2.79.31-5.24.23.23.39.65.62.87v4.81ZM324.59,135.21c.52-1.06-.38,1.46,0,0h0ZM325.53,137.39c-.85-.44.1-3.73-.78-3.5.22-.67.81-1.24,1.09-.44-.05,1.47-.08,2.98-.31,3.93Z"/>
        <path class="cls-1" d="M211.64,131.42c-.73-.85-1.21-.04-1.94.25-.09.04-.2-.13-.23-.13-.29.04-.4.73-.4.97,0,2.65,3.38,2.56,3.28.45-.03-.58-.35-1.12-.72-1.55Z"/>
        <path class="cls-1" d="M222.38,145.23c.51-.12,1.2.28,1.34.27.43-.03.65-.57.53-.95-.06-.21-.87-1.6-1.01-1.78-.58-.7-1.94-.26-2.25.45-.06.15.08.28.07.42,0,.13-.13.25-.13.31.01.25.46,1.02.8,1.02l-.42.43c.45,1.16.65-.05,1.07-.15Z"/>
        <path class="cls-1" d="M209.48,131.55s.13.16.22.13c.72-.29,1.2-1.1,1.94-.25.37.43.69.97.72,1.55.09,2.11-3.28,2.19-3.28-.45,0-.24.11-.94.4-.97Z"/>
        <path class="cls-1" d="M223.71,145.5c-.14,0-.83-.39-1.34-.27-.42.1-.63,1.31-1.07.15l.42-.43c-.35,0-.79-.77-.8-1.02,0-.06.12-.18.13-.31,0-.14-.13-.27-.07-.42.31-.71,1.67-1.15,2.25-.45.15.18.95,1.57,1.01,1.78.12.38-.11.93-.53.95Z"/>
        <path class="cls-1" d="M271.1,109c-.58-.21-.71-1.44-.22-1.82,1.23-.97,2.75.87,2.45,1.42-.21.38-1.81.56-2.23.41Z"/>
        <path class="cls-1" d="M236.18,145.88c-.14.49-1.22.55-1.66.57-.48-.58-.52-2.16.37-2.3.1-.02.84.14.91.21.09.09.41,1.39.37,1.52Z"/>
        <path class="cls-1" d="M192.44,144.37c.09.08.16.15.19.27l-.04.38c-.54.7-.94.52-1.25-.25-.01-.72.65-.82,1.1-.41Z"/>
        <path class="cls-1" d="M195.77,146.73c.56.68-.72,1.32-1.12.6-.37-.67.67-1.16,1.12-.6Z"/>
        <path class="cls-1" d="M227.59,145.92c-.21,1.03-1.8.25-1-.54.47-.46,1.1.07,1,.54Z"/>
        <path class="cls-1" d="M276.89,149.76c-.11.6-1.19.68-1.22-.1s1.4-.86,1.22.1Z"/>
        <path class="cls-1" d="M290.95,153.67c-.09,0-.29-.19-.49.08-.73-.87.74-1.79.93-.63.07.44-.1.52-.44.55Z"/>
        <path class="cls-1" d="M247.71,137.08l.08-.31-.4-.13.88-.59c.22.34.58.66.41,1.09l-.88.1-.08-.16Z"/>
        <path class="cls-1" d="M207.18,132.09l-.55-.57c.53-.18.77-.42.95-.96l.46.9-.85.63Z"/>
        <path class="cls-1" d="M277.99,148.54c-.04.21-.38.52-.58.57-.6.12-.73-.83-.29-1.04.35-.17.98-.03.87.47Z"/>
        <path class="cls-1" d="M282.41,96c-1.03-1.06.93-1.29.58-.39-.1.25-.38.28-.58.39Z"/>
        <path class="cls-1" d="M243.64,138.19c.18,0,.74.66.17.84-.46.14-.69-.84-.17-.84Z"/>
        <path class="cls-1" d="M415.43,124.6c-.08-.18.07-.84.06-.89-.1-.58-.64-1.37-1.21-1.53-1.1-.31-1.05.21-1.81.75-.98-1.53-2.16.63-.14.5-.17,1.73,2.29,2.93,3.11,1.17Z"/>
        <path class="cls-1" d="M374.71,155.24c.51-.12,1.2.28,1.34.27.43-.03.65-.57.53-.95-.06-.21-.87-1.6-1.01-1.78-.58-.7-1.94-.26-2.25.45-.06.15.08.28.07.42,0,.13-.13.25-.13.31.01.25.46,1.02.8,1.02l-.42.43c.45,1.16.65-.05,1.07-.15Z"/>
        <path class="cls-1" d="M415.48,123.71s-.13.71-.06.89c-.81,1.76-3.28.55-3.11-1.17-2.02.12-.84-2.04.14-.5.76-.54.71-1.06,1.81-.75.57.16,1.11.95,1.21,1.53Z"/>
        <path class="cls-1" d="M376.04,155.51c-.14,0-.83-.39-1.34-.27-.42.1-.63,1.31-1.07.15l.42-.43c-.35,0-.79-.77-.8-1.02,0-.06.12-.18.13-.31,0-.14-.13-.27-.07-.42.31-.71,1.67-1.15,2.25-.45.15.18.95,1.57,1.01,1.78.12.38-.11.93-.53.95Z"/>
        <path class="cls-1" d="M423.43,119.01c-.58-.21-.71-1.44-.22-1.82,1.23-.97,2.75.87,2.45,1.42-.21.38-1.81.56-2.23.41Z"/>
        <path class="cls-1" d="M388.51,155.89c-.14.49-1.22.55-1.66.57-.48-.58-.52-2.16.37-2.3.1-.02.84.14.91.21.09.09.41,1.39.37,1.52Z"/>
        <path class="cls-1" d="M464.75,159.48c0,.08-.36.72-.46.82-.89.82-1.75.05-1.8-.97.3-.62.95-.77,1.56-.91l.71,1.07Z"/>
        <path class="cls-1" d="M457.85,152.41c.17-.95,1.08-1.2,1.54-.23.65,1.36-1.8,1.72-1.54.23Z"/>
        <path class="cls-1" d="M414.94,144.36c-1.17-.54-.17-2.12.68-1.24.4.42-.25,1.09-.68,1.24Z"/>
        <path class="cls-1" d="M348.1,156.74c.56.68-.72,1.32-1.12.6-.37-.67.67-1.16,1.12-.6Z"/>
        <path class="cls-1" d="M379.92,155.93c-.21,1.03-1.8.25-1-.54.47-.46,1.1.07,1,.54Z"/>
        <path class="cls-1" d="M429.22,159.77c-.11.6-1.19.68-1.22-.1s1.4-.86,1.22.1Z"/>
        <path class="cls-1" d="M443.28,163.68c-.09,0-.29-.19-.49.08-.73-.87.74-1.79.93-.63.07.44-.1.52-.44.55Z"/>
        <path class="cls-1" d="M430.32,158.55c-.04.21-.38.52-.58.57-.6.12-.73-.83-.29-1.04.35-.17.98-.03.87.47Z"/>
        <path class="cls-1" d="M420.26,147.11c.62.48-.32,1.06-.55.82-.33-.34.13-1.15.55-.82Z"/>
        <path class="cls-1" d="M416.34,149.33c-.14.38-1.19.11-.69-.47.4-.45.74.32.69.47Z"/>
        <path class="cls-1" d="M52.12,160.5c.3-.43,1.07-.61,1.17-.71.3-.31.09-.86-.25-1.06-.18-.11-1.72-.59-1.95-.63-.9-.13-1.6,1.12-1.35,1.85.05.15.24.15.33.26.08.1.07.27.11.31.18.17,1.03.44,1.28.21l-.02.6c1.11.55.45-.48.69-.84Z"/>
        <path class="cls-1" d="M53.28,159.79c-.1.1-.87.27-1.17.71-.24.35.43,1.39-.69.84l.02-.6c-.25.24-1.1-.03-1.28-.21-.04-.04-.03-.21-.11-.31-.09-.11-.28-.11-.33-.26-.25-.73.45-1.98,1.35-1.85.23.03,1.76.52,1.95.63.34.2.55.75.25,1.06Z"/>
        <path class="cls-1" d="M63.52,100.86c-.57.24-1.49-.58-1.39-1.2.25-1.55,2.62-1.22,2.76-.61.1.42-.96,1.64-1.37,1.81Z"/>
        <path class="cls-1" d="M62.72,151.65c.22.45-.53,1.24-.83,1.54-.75-.1-1.84-1.24-1.28-1.95.07-.08.72-.47.81-.46.13,0,1.24.74,1.3.87Z"/>
        <path class="cls-1" d="M121.33,102.75c.06.05.22.77.21.92-.1,1.21-1.26,1.22-1.99.5-.2-.66.18-1.21.54-1.72l1.24.31Z"/>
        <path class="cls-1" d="M124.48,112.76c.34-.02,1.19.22,1.23.63.07.78-.77,1.41-1.45,1-.57-.35-.4-1.6.22-1.63Z"/>
        <path class="cls-1" d="M111.47,102.2c-.52-.81-.01-1.61.98-1.21,1.4.56-.16,2.48-.98,1.21Z"/>
        <path class="cls-1" d="M74.4,125.28c-1.23.39-1.55-1.45-.33-1.37.58.04.55.97.33,1.37Z"/>
        <path class="cls-1" d="M116.7,94.83c.21.34.07,1.07-.53.94-1.31-.3-.07-1.91.53-.94Z"/>
        <path class="cls-1" d="M56.42,157.48c.54.9-1.15,1.4-1.1.28.03-.66.85-.69,1.1-.28Z"/>
        <path class="cls-1" d="M95.34,126.98c.32.52-.41,1.31-.97.76s.46-1.58.97-.76Z"/>
        <path class="cls-1" d="M108.35,120.36c-.06.06-.34.06-.31.39-1.13-.14-.67-1.82.26-1.09.35.27.28.45.05.7Z"/>
        <path class="cls-1" d="M95.33,125.34c.11.18.07.64-.04.82-.36.5-1.1-.12-.92-.57.15-.36.7-.68.96-.24Z"/>
        <path class="cls-1" d="M80.19,123.71c.78-.06.48,1,.15.98-.47-.03-.69-.94-.15-.98Z"/>
        <path class="cls-1" d="M66.68,95.68c-.17-.5.64-.81.82-.34.27.68-.7.7-.82.34Z"/>
        <path class="cls-1" d="M78.8,127.99c.16.37-.8.88-.82.12-.01-.6.76-.27.82-.12Z"/>
        <path class="cls-1" d="M63.03,140.93c.13-.12.99-.02.69.5-.24.42-1.08-.15-.69-.5Z"/>
      </g>
      <g>
        <g>
          <polygon class="cls-1" points="370.35 7.27 370.35 6.53 373.93 6.53 373.93 7.27 372.59 7.27 372.59 10.9 371.69 10.9 371.69 7.27 370.35 7.27"/>
          <path class="cls-1" d="M374.54,10.9v-4.38h1.37l.71,2.01c.03.09.06.22.1.36.04.15.08.31.12.48.04.17.08.34.11.5.03.16.06.3.08.42h-.17c.02-.12.05-.26.08-.42.03-.16.07-.33.11-.5s.08-.33.12-.48c.04-.15.07-.27.1-.37l.7-2.01h1.38v4.38h-.9v-2.06c0-.1,0-.22,0-.36,0-.14,0-.3.01-.46,0-.17,0-.33.01-.5,0-.17,0-.33,0-.47h.06c-.04.16-.08.33-.12.5-.05.17-.09.34-.14.5s-.09.31-.13.45c-.04.14-.08.25-.11.34l-.73,2.06h-.75l-.74-2.06c-.03-.09-.06-.2-.11-.34s-.08-.28-.13-.44c-.05-.16-.09-.33-.14-.5-.05-.17-.09-.34-.13-.51h.07c0,.14,0,.29,0,.46,0,.17,0,.33.01.5,0,.17,0,.32.01.47,0,.14,0,.27,0,.37v2.06h-.89Z"/>
        </g>
        <g>
          <path class="cls-1" d="M72.17,47.61c3.3.45,7.3-.26,10.76,0,15.32,1.14,37.32,1.28,51.42,4.78,3.26.81,6.49,1,9.72,1.21-.3-1.62-.35-3.47.04-5.59,1.28,1.05,1.96,3.75,2.88,5.8,2.16.18,4.32.43,6.49.97,6.93,1.72,14.55,1.85,21.53,3.59,6.78,1.69,13.45.12,19.13,3.59l5.98-2.39,4.78,5.98h1.2c1.29-1.03,6.1-3.72,6.58-5.38.47-1.65.69-4.37,1.2-5.98,2.11-6.76,5.55-14.62,7.18-21.53.87-3.71,1.04-3.84,2.39-7.18.38-.93-.64-2.64,1.2-3.59v-1.2c-1.51-2.83-2.55-3.87-5.38-5.38-1.19-.37-5.21,3.56-5.38,4.19-.6,2.19-.6,6.18-1.2,8.37-1.35,4.97-5.42,9.98-4.78,15.55l-2.39,7.18c-1.22,1.82-3.23,2.3-5.38,1.79-1.38-.32-3.04-.81-4.78-1.2-13.91-3.11-29.99-5.29-44.25-7.18-2.24-.3-4.86.2-7.18,0l-2.99-3.59c4.19.17,7.35-2.91,11.36-2.39,4.61-3.08,9.71-4.32,14.35-5.98,7.19-2.57,13.62-6.04,21.53-8.37.96-.28,7.76-7.12,6.58-8.97-1.17-.74-3.34-3.95-4.19-4.19-2.6-.72-8.6.25-11.96,0-11.96-.89-23.36-.94-35.88,0-2.5.19-6.59,2.1-10.76,1.2-.41-.09-3.18-2.3-3.59-2.39-5.94-1.28-6.06,2.31-9.57,4.78-.25.17-.89-.19-1.2,0-1.09.69-1.43,1.62-1.83,2.51-.07.33-.16.5-.28.56-.21.38-.46.74-.83,1.06.04.3.05.55-.06.87v2.78l2.39,4.78c-2.25,2-2.52,8.18-5.38,8.97-1,.28-2.52-.25-3.59,0-.96.22-5.24,2.28-5.98,2.39-2.67.39-7.93.24-10.76,0-.43-.04-.77-1.17-1.2-1.2-2.44-.17-7.8-.41-11.73-.32,0,.04,0,.08,0,.13-.03-.03-.05-.09-.07-.12-1.06.03-2.01.08-2.76.17.01.32-.06.58-.26.03-.27.04-.51.07-.72.12-.43.1-.68.96-1.2,1.2-.37.17-.94-.15-1.2,0-3.74,2.22-4.8,8.91,0,9.57ZM141.47,44.52c-.75,2.12-1.61-1.34-1.09-4.81.66.78,1.1,2.17,1.09,4.81ZM129.57,22.5c1.27-.35,3.33.26,4.78,0,4.96-.9,7.9-.81,13.15-1.2.43-.03.77-1.16,1.2-1.2,2.84-.22,6.74-.23,9.57,0,2.32.19,3.32.98,5.38,1.2l-7.77,5.98c-8.24.27-16.29,4.74-23.92,5.98-1.64.27-3.65-.18-5.38,0-.17-3.18-.61-9.77,2.99-10.76ZM81.5,42.34c-.06,1.09-.6.03-.47-.87.16.28.16,1,.47.87ZM81.34,39.28c-.07.69-.49.37-.31,1.75-.6-.25-.49.01-.78-1.31.29,0,.49.37,1.09-.44ZM79.94,41.9c-.21-.44-.31-1.18-.63-1.31.18-1.17.83-.04.63,1.31ZM78.69,37.97c.22.04.44.07.47-.44.22.15.01.77-.15.87-.03.51.03.78.15.87-.17,1.28-.51-.55-.47-1.31ZM77.13,37.1c-.27,1.54.1,1.07.16,2.62-.57,1.17-.9-1.37-1.09-2.62.49-.49.35-.04.94,0Z"/>
          <path class="cls-1" d="M154.43,46.7c.1.29-.07-.18,0,0h0Z"/>
          <path class="cls-1" d="M158.18,14.82c.58,1.32-.48,1.47,0,0h0Z"/>
          <path class="cls-1" d="M82.12,43.21c.48-1.19-.43,1.33,0,0h0Z"/>
          <path class="cls-1" d="M78.69,45.83c.23-1.45.39,1.7,0,0h0Z"/>
          <path class="cls-1" d="M75.88,39.71c.03-1.31.65.42,0,0h0Z"/>
          <path class="cls-1" d="M300.58,46.42c4,2,8.79,5.41,13.15,7.18.76.31,2.43.51,3.87.73-.11-.37-.2-.73-.29-1.07.31.25.55.66.77,1.15.66.11,1.26.23,1.63.38,3.65,1.46,7.81,6.31,11.96,7.18,1.42.29,3.38-.3,4.78,0,.41.09,3.18,2.3,3.59,2.39,1.38.3,5.64.22,7.17,0,.44-.06.73-1.09,1.2-1.2,1.09-.24,2.59.27,3.59,0,1.89-.51,5.13-3.61,8.37-4.78,5.76-2.09,11.11-5.38,16.74-7.18,3.99-1.27,9.11-3.24,13.46-5.08.13-1.08.38-2.05.33-.14.6-.26,1.19-.51,1.76-.76.82-.36,4.01-2.36,4.19-2.99.21-.78.19-3.92,0-4.78-.1-.42-.96-.68-1.2-1.2-.17-.37.15-.94,0-1.2-.59-1-4.27-4.53-5.38-5.38-5.93-4.54-13.99-9.77-20.33-14.35-2.39-1.72-4.27-2.45-5.98-3.59-2.4-1.59-4.85-5.77-7.17-7.18-.35-.21-1.79.15-2.39-1.2h-1.2c-.98,1.79-2.41.86-3.59,1.2-5.44,1.55-11.2,3.93-16.74,5.98-4.56,1.69-9.16,4-13.75,5.96.29.8.48,1.93.39,3.13-.84-.84-1.29-1.51-1.87-2.18,0-.13.02-.22.02-.34-.51.21-1.02.41-1.53.61-5.6,2.13-13.86,6.03-19.13,9.57-1.85,1.24-2.78,4.18-5.38,3.59l-1.2,6.58c2.12,3.47,6.71,7.24,10.16,8.97ZM392.9,44.09c.03-1.31.65.42,0,0h0ZM314.04,41.9c.77-.84,1.68,1.69,1.87,3.93-1.21,1.75-1.46-2.1-1.87-3.93ZM312.16,23.12c.69-.03,1.28.22,1.41,1.75-.29.78-1.03.32-1.56.44-.05-1.01.02-1.68.16-2.18ZM307.75,32.07c.96-.61,2.39-1.36,3.97-2.16-.08-.81-.04-1.98.12-2.42.25.61.81.37.94,1.31,0,.24-.02.43-.04.6,2.46-1.21,5.14-2.44,6.96-3.32,8.12-3.9,17.33-6.45,25.96-9.7.4-4.14,2-7.52,3.35-9.86,0,3.05-.57,6.9-1.49,9.14.29-.12.59-.22.88-.34.81-.33,2.71-1.73,3.59-2.39h2.39c.5.65,1.38,1.16,1.79,1.79.33.51.86,3.06,1.2,3.59,2.21,3.47,6.25,3.57,8.97,5.38,1.35.9,4.8,3.79,5.98,4.78,1.28,1.08,8.79,8.36,8.97,8.97,1.01,3.33-4.12,2.64-5.38,2.99-.66.18-1.73,2.21-2.39,2.39-6.02,1.66-12.7,4.43-17.94,7.18-4.23,2.21-8.14,5.62-13.15,4.78-.96-1.82-2.58-.83-3.59-1.2-3.19-1.17-7.47-4.47-10.76-5.98-6.47-2.97-13.98-5.55-20.33-9.57-1.03-.65-1.93-2.19-2.99-2.99,1.06-.8,1.96-2.34,2.99-2.99Z"/>
          <path class="cls-1" d="M241.98,42.83c10.16,7.56,26.66,10.66,38.27,16.74,3.1,1.62,5.3,2.34,8.37,3.59.82.33,2.71,1.72,3.59,2.39l7.77-2.39,1.2-2.99c-1.44-1.21-1.21-3.05-2.99-4.19-.24-.15-.82.18-1.2,0-2.7-1.26-5.42-2.48-8.14-3.69-.08.96-.16,1.89-.6,1.83-.18-.53-.09-1.57.19-2.01-9.08-4.02-18.22-7.79-27.34-11.68-1.68-.71-5.19-1.13-7.17-2.39-1.03-.65-1.93-2.19-2.99-2.99-.4-1.25,3.12-4.68,4.19-5.38,6.17-4.09,13.73-7.03,20.33-10.76,2.45-1.38,6.24-3.2,8.37-4.78.91-.68,3.69-3.35,4.19-4.19.15-.26-.17-.83,0-1.2.24-.51,1.05-.75,1.2-1.2,1.26-3.97-3.58-4.83-6.58-4.19-.42.09-2.82,1.99-3.59,2.39-12.54,6.49-24.78,14.56-37.07,21.53-.93.53-1.04,1.75-2.99,1.2.66,1.92-1.11,2.52-1.2,2.99-.91,5.15.09,8.31,4.19,11.36ZM272.33,48.45c-.24.92-.18,2.71-.94,2.18-.13-2.25.45-2.81.94-2.18Z"/>
          <path class="cls-1" d="M130.66,36.96c.09-.11-.14-.25-.12-.36.02-.14.4-.36.33-.75-.04-.23-.43-1.05-.62-1.17-.07-.04-1.46-.37-1.56-.35-1.49.21-1.88,1.98-.87,2.98.68.68,2.16.17,2.83-.34Z"/>
          <path class="cls-1" d="M83.77,36.37c-.73-.85-1.21-.04-1.94.25-.09.04-.2-.13-.23-.13-.29.04-.4.73-.4.97,0,2.65,3.38,2.56,3.28.45-.03-.58-.35-1.12-.72-1.55Z"/>
          <path class="cls-1" d="M108.69,28.92c-.09.01-.19.04-.29.06.16,1.11.2,2.24.11,3.36.65-.28,1.46-1.11,1.47-1.64.02-.77-.89-1.23-1.29-1.79Z"/>
          <path class="cls-1" d="M135.22,19.54c-.08-.18.07-.84.06-.89-.1-.58-.64-1.37-1.21-1.53-1.1-.31-1.05.21-1.81.75-.98-1.53-2.16.63-.14.5-.17,1.73,2.29,2.93,3.11,1.17Z"/>
          <path class="cls-1" d="M94.51,50.18c.51-.12,1.2.28,1.34.27.43-.03.65-.57.53-.95-.06-.21-.87-1.6-1.01-1.78-.58-.7-1.94-.26-2.25.45-.06.15.08.28.07.42,0,.13-.13.25-.13.31.01.25.46,1.02.8,1.02l-.42.43c.45,1.16.65-.05,1.07-.15Z"/>
          <path class="cls-1" d="M116.5,18.92c.29-.42.74-1.09.09-1.36l.43-.44-1.1-2.2.37-.37c-.16-.95-.62-.47-1.08-.47-.21,0-.26-.23-.64-.07-.61.25-2.44,2.04-2.53,2.66-.03.19.17.74.15,1.13-.01.25-.21.43-.21.49,0,.07.39.34.5.51.13.2.42.81.5.87.17.12.61.04.84.07.56.07.72.11,1.28.03.81-.12.89-.13,1.39-.84Z"/>
          <path class="cls-1" d="M116.29,14.55l-.37.37,1.1,2.2-.43.44c.65.28.21.95-.09,1.36-.5.71-.58.73-1.39.84-.56.08-.72.04-1.28-.03-.22-.03-.67.05-.84-.07-.09-.06-.37-.67-.5-.87-.11-.17-.5-.44-.5-.51,0-.05.2-.24.21-.49.02-.38-.18-.94-.15-1.13.09-.62,1.92-2.41,2.53-2.66.39-.16.44.08.64.07.46,0,.91-.49,1.08.47Z"/>
          <path class="cls-1" d="M130.54,36.6c-.01.11.21.25.12.36-.68.51-2.15,1.02-2.83.34-1.01-1-.62-2.77.87-2.98.1-.01,1.49.31,1.56.35.19.12.58.94.62,1.17.06.39-.32.61-.33.75Z"/>
          <path class="cls-1" d="M135.28,18.65s-.13.71-.06.89c-.81,1.76-3.28.55-3.11-1.17-2.02.12-.84-2.04.14-.5.76-.54.71-1.06,1.81-.75.57.16,1.11.95,1.21,1.53Z"/>
          <path class="cls-1" d="M81.61,36.49s.13.16.22.13c.72-.29,1.2-1.1,1.94-.25.37.43.69.97.72,1.55.09,2.11-3.28,2.19-3.28-.45,0-.24.11-.94.4-.97Z"/>
          <path class="cls-1" d="M108.69,28.92c-.09.01-.19.04-.29.06.16,1.11.2,2.24.11,3.36.65-.28,1.46-1.11,1.47-1.64.02-.77-.89-1.23-1.29-1.79Z"/>
          <path class="cls-1" d="M95.84,50.45c-.14,0-.83-.39-1.34-.27-.42.1-.63,1.31-1.07.15l.42-.43c-.35,0-.79-.77-.8-1.02,0-.06.12-.18.13-.31,0-.14-.13-.27-.07-.42.31-.71,1.67-1.15,2.25-.45.15.18.95,1.57,1.01,1.78.12.38-.11.93-.53.95Z"/>
          <path class="cls-1" d="M126.28,21.35c1.32,1.23-.35,3.36-1.5,1.77-1.09-1.5.51-2.69,1.5-1.77Z"/>
          <path class="cls-1" d="M143.23,13.94c-.58-.21-.71-1.44-.22-1.82,1.23-.97,2.75.87,2.45,1.42-.21.38-1.81.56-2.23.41Z"/>
          <path class="cls-1" d="M108.3,50.83c-.14.49-1.22.55-1.66.57-.48-.58-.52-2.16.37-2.3.1-.02.84.14.91.21.09.09.41,1.39.37,1.52Z"/>
          <path class="cls-1" d="M184.55,54.42c0,.08-.36.72-.46.82-.89.82-1.75.05-1.8-.97.3-.62.95-.77,1.56-.91l.71,1.07Z"/>
          <path class="cls-1" d="M180.1,63.93c.26.22.73.96.48,1.29-.47.63-1.52.52-1.75-.24-.19-.64.79-1.45,1.27-1.05Z"/>
          <path class="cls-1" d="M177.65,47.34c.17-.95,1.08-1.2,1.54-.23.65,1.36-1.8,1.72-1.54.23Z"/>
          <path class="cls-1" d="M120.34,30.3c.47.39.49,1.16-.15,1.31s-1.14-.12-1.17-.84c-.03-.6.95-.78,1.33-.46Z"/>
          <path class="cls-1" d="M129.3,21c.28-.26.57-.73,1.01-.6,1.59.49-.44,3.05-1.01.6Z"/>
          <path class="cls-1" d="M114,31.26c-.73.06-.84.74-.78,1.33-.63.6-1.6-1.09-.63-1.66.32-.19.97.71.77-.03l.64.36Z"/>
          <path class="cls-1" d="M118.14,21.57c1.07.86-.1,1.81-.9,1.13-.58-.49.17-1.72.9-1.13Z"/>
          <path class="cls-1" d="M134.73,39.29c-1.17-.54-.17-2.12.68-1.24.4.42-.25,1.09-.68,1.24Z"/>
          <path class="cls-1" d="M64.57,49.31c.09.08.16.15.19.27l-.04.38c-.54.7-.94.52-1.25-.25-.01-.72.65-.82,1.1-.41Z"/>
          <path class="cls-1" d="M130.84,13.19c.76.74-.3,1.44-.84.84s.24-1.43.84-.84Z"/>
          <path class="cls-1" d="M67.9,51.67c.56.68-.72,1.32-1.12.6-.37-.67.67-1.16,1.12-.6Z"/>
          <path class="cls-1" d="M186.49,45.45c-.08.39-.68.84-1.02.33-.76-1.11,1.25-1.45,1.02-.33Z"/>
          <path class="cls-1" d="M99.72,50.86c-.21,1.03-1.8.25-1-.54.47-.46,1.1.07,1,.54Z"/>
          <path class="cls-1" d="M149.02,54.7c-.11.6-1.19.68-1.22-.1s1.4-.86,1.22.1Z"/>
          <path class="cls-1" d="M163.08,58.62c-.09,0-.29-.19-.49.08-.73-.87.74-1.79.93-.63.07.44-.1.52-.44.55Z"/>
          <path class="cls-1" d="M119.84,42.02l.08-.31-.4-.13.88-.59c.22.34.58.66.41,1.09l-.88.1-.08-.16Z"/>
          <path class="cls-1" d="M79.31,37.03l-.55-.57c.53-.18.77-.42.95-.96l.46.9-.85.63Z"/>
          <path class="cls-1" d="M150.12,53.49c-.04.21-.38.52-.58.57-.6.12-.73-.83-.29-1.04.35-.17.98-.03.87.47Z"/>
          <path class="cls-1" d="M197.56,59.05c.61.52-.37,1.29-.83.82-.44-.44.33-1.24.83-.82Z"/>
          <path class="cls-1" d="M154.54.95c-1.03-1.06.93-1.29.58-.39-.1.25-.38.28-.58.39Z"/>
          <path class="cls-1" d="M140.06,42.05c.62.48-.32,1.06-.55.82-.33-.34.13-1.15.55-.82Z"/>
          <path class="cls-1" d="M192.41,52.05c.22-.48,1.02-.17.84.31-.26.68-.99.04-.84-.31Z"/>
          <path class="cls-1" d="M136.14,44.27c-.14.38-1.19.11-.69-.47.4-.45.74.32.69.47Z"/>
          <path class="cls-1" d="M115.77,43.14c.18,0,.74.66.17.84-.46.14-.69-.84-.17-.84Z"/>
          <path class="cls-1" d="M387.47,46.25c.73.89,1.31.12,2.11-.11.1-.03.2.14.23.14.32-.01.49-.69.5-.93.19-2.59-3.45-2.74-3.5-.67-.02.57.29,1.12.66,1.57Z"/>
          <path class="cls-1" d="M331.39,61.42c.16.03.31.07.47.09.31.09.61.21.91.32.37-.09.56-.41,1.11-.71.94,1.57,2.37-.47.19-.48.31-1.68-2.25-3.03-3.26-1.36.07.18-.13.82-.13.87.04.41.32.94.7,1.28Z"/>
          <path class="cls-1" d="M376.94,31.99c-.56.08-1.27-.35-1.42-.35-.46,0-.74.52-.64.9.05.21.81,1.63.96,1.81.57.73,2.07.39,2.45-.29.08-.14-.06-.28-.04-.41.02-.13.16-.23.16-.29,0-.25-.41-1.03-.79-1.05l.48-.39c-.39-1.17-.71,0-1.17.07Z"/>
          <path class="cls-1" d="M350.94,61.14c-.35.39-.87,1.02-.2,1.33l-.5.4,1.02,2.23-.43.34c.1.95.63.5,1.12.53.22.01.26.24.69.12.67-.2,2.78-1.84,2.92-2.43.04-.18-.13-.74-.08-1.12.03-.24.25-.41.26-.46,0-.07-.39-.36-.5-.54-.13-.21-.39-.82-.48-.89-.17-.13-.66-.08-.89-.12-.6-.11-.77-.16-1.38-.12-.88.06-.97.07-1.56.73Z"/>
          <path class="cls-1" d="M350.84,65.44l.43-.34-1.02-2.23.5-.4c-.68-.31-.15-.94.2-1.33.59-.66.68-.67,1.56-.73.61-.04.78.01,1.38.12.24.04.73,0,.89.12.09.07.35.68.48.89.11.17.51.47.5.54,0,.05-.23.22-.26.46-.05.37.13.93.08,1.12-.14.6-2.25,2.23-2.92,2.43-.43.13-.47-.11-.69-.12-.5-.02-1.02.42-1.12-.53Z"/>
          <path class="cls-1" d="M331.39,61.42c.16.03.31.07.47.09.31.09.61.21.91.32.37-.09.56-.41,1.11-.71.94,1.57,2.37-.47.19-.48.31-1.68-2.25-3.03-3.26-1.36.07.18-.13.82-.13.87.04.41.33.94.7,1.28Z"/>
          <path class="cls-1" d="M389.8,46.28s-.13-.17-.23-.14c-.8.23-1.38,1-2.11.11-.37-.45-.67-1-.66-1.57.06-2.07,3.7-1.93,3.5.67-.02.24-.18.91-.5.93Z"/>
          <path class="cls-1" d="M375.52,31.64c.15,0,.86.43,1.42.35.46-.07.77-1.24,1.17-.07l-.48.39c.37.02.79.8.79,1.05,0,.06-.15.16-.16.29-.02.14.12.27.04.41-.38.67-1.88,1.02-2.45.29-.14-.18-.91-1.61-.96-1.81-.1-.38.18-.9.64-.9Z"/>
          <path class="cls-1" d="M285.8,12.72c-.27-.23-.71-.99-.42-1.3.56-.58,1.68-.41,1.86.35.15.64-.96,1.36-1.44.95Z"/>
          <path class="cls-1" d="M337.31,58.24c-.32.24-.67.68-1.13.52-1.68-.58.7-2.96,1.13-.52Z"/>
          <path class="cls-1" d="M349.37,58.44c-1.08-.92.24-1.77,1.05-1.05.59.52-.31,1.68-1.05,1.05Z"/>
          <path class="cls-1" d="M409.11,34.87c-.09-.08-.17-.16-.19-.28l.07-.37c.64-.65,1.05-.44,1.33.33-.04.7-.76.76-1.22.32Z"/>
          <path class="cls-1" d="M405.69,32.33c-.55-.71.87-1.24,1.25-.51.35.68-.8,1.09-1.25.51Z"/>
          <path class="cls-1" d="M318.58,23.87c.17-.58,1.33-.59,1.31.18s-1.57.74-1.31-.18Z"/>
          <path class="cls-1" d="M303.74,19.08c.09,0,.3.2.53-.04.73.9-.93,1.71-1.05.55-.04-.43.15-.5.51-.51Z"/>
          <path class="cls-1" d="M392.32,45.9l.55.6c-.59.14-.86.36-1.09.87l-.42-.91.96-.56Z"/>
          <path class="cls-1" d="M317.31,24.99c.06-.2.45-.48.67-.52.66-.08.72.87.23,1.04-.39.14-1.05-.04-.9-.52Z"/>
          <path class="cls-1" d="M266.65,16.33c-.62-.55.49-1.24.95-.75.44.46-.45,1.19-.95.75Z"/>
          <path class="cls-1" d="M308.64,76.18c1.03,1.11-1.1,1.2-.65.34.12-.24.43-.25.65-.34Z"/>
        </g>
      </g>
    </g>
  </g>
</svg>